<?xml version="1.0" encoding="iso-8859-1"?>
<!-- Generator: Adobe Illustrator 27.0.0, SVG Export Plug-In . SVG Version: 6.00 Build 0)  -->
<svg version="1.1" baseProfile="basic" xmlns="http://www.w3.org/2000/svg" xmlns:xlink="http://www.w3.org/1999/xlink" x="0px"
	 y="0px" viewBox="0 0 64 64" xml:space="preserve">
<g id="Layer_1">
</g>
<g id="Layer_2">
</g>
<g id="Layer_3">
</g>
<g id="Layer_4">
</g>
<g id="Layer_5">
</g>
<g id="Layer_6">
</g>
<g id="Layer_7">
	<path d="M45,22l-3,3c1.11,0.85,10,5.49,10,15c0,9-4.21,13.45-9,17c0.92-1.24,4-9-1.73-13.48l-4.37,4.36
		c-3.81-1.05-6.62-4.56-6.62-8.71c0-0.4,0.03-0.79,0.08-1.17c-2.99,3.33-9.36,9-5.06,18.57C19.92,52.24,15,48,15,40
		c0-15.75,9.2-23.44,17-28c0.19,4.93,0.72,10.67,7,16l3-3c-7.49-6.55-6-22.81-6-24C19,9,7,24.25,7,40c0,12,12,24,27.5,24
		C47.46,64,56,52.96,56,40C56,29,45,22,45,22z"/>
</g>
<g id="Layer_8">
</g>
<g id="Layer_9">
</g>
</svg>