<?xml version="1.0" encoding="iso-8859-1"?><!-- Generator: Adobe Illustrator 19.1.0, SVG Export Plug-In . SVG Version: 6.00 Build 0)  --><svg xmlns="http://www.w3.org/2000/svg" xmlns:xlink="http://www.w3.org/1999/xlink" viewBox="0 0 50 50" width="50px" height="50px"><path style="fill:none;stroke:#000000;stroke-width:2;stroke-linecap:round;stroke-linejoin:round;stroke-miterlimit:10;" d="M47,43H3c-1.105,0-2-0.895-2-2V9c0-1.105,0.895-2,2-2h44c1.105,0,2,0.895,2,2v32C49,42.105,48.105,43,47,43z"/><line style="fill:none;stroke:#000000;stroke-width:2;stroke-linecap:round;stroke-linejoin:round;stroke-miterlimit:10;" x1="25" y1="13" x2="25" y2="37"/><circle cx="33" cy="22" r="2"/><circle cx="38" cy="28" r="2"/><circle cx="43" cy="22" r="2"/><path d="M7,18v10c0,1.105,0.895,2,2,2h0V18h6v12h0c1.105,0,2-0.895,2-2V18c0-1.105-0.895-2-2-2H9C7.895,16,7,16.895,7,18z"/><polygon style="fill:none;stroke:#000000;stroke-width:2;stroke-linecap:round;stroke-linejoin:round;stroke-miterlimit:10;" points="14,32 10,32 9,29 9,18 15,18 15,29 "/><line style="fill:none;stroke:#000000;stroke-width:2;stroke-linecap:round;stroke-linejoin:round;stroke-miterlimit:10;" x1="15" y1="29" x2="9" y2="29"/></svg>