<svg xmlns="http://www.w3.org/2000/svg"  viewBox="0 0 32 32" width="50px" height="50px"><path d="m28.5,4H3.5c-1.38,0-2.5,1.12-2.5,2.5v3c0,1.27.95,2.31,2.17,2.47l1.52,7.62c.28,1.4,1.52,2.41,2.94,2.41h16.72c1.43,0,2.66-1.01,2.94-2.41l1.52-7.62c1.22-.16,2.17-1.2,2.17-2.47v-3c0-1.38-1.12-2.5-2.5-2.5Zm-8,16h-9v-3c0-.55.45-1,1-1h7c.55,0,1,.45,1,1v3Zm4.84-.8c-.09.47-.51.8-.98.8h-1.86v-3c0-1.65-1.35-3-3-3h-7c-1.65,0-3,1.35-3,3v3h-1.86c-.48,0-.89-.34-.98-.8l-1.44-7.2h21.56l-1.44,7.2Zm3.66-9.7c0,.28-.22.5-.5.5H3.5c-.28,0-.5-.22-.5-.5v-3c0-.28.22-.5.5-.5h25c.28,0,.5.22.5.5v3Z"/><path d="m17.5,17h-3c-.55,0-1,.45-1,1s.45,1,1,1h3c.55,0,1-.45,1-1s-.45-1-1-1Z"/><path d="m7,7h-1c-.55,0-1,.45-1,1s.45,1,1,1h1c.55,0,1-.45,1-1s-.45-1-1-1Z"/><path d="m26,7h-1c-.55,0-1,.45-1,1s.45,1,1,1h1c.55,0,1-.45,1-1s-.45-1-1-1Z"/><path d="m16,23c-.55,0-1,.45-1,1v3c0,.55.45,1,1,1s1-.45,1-1v-3c0-.55-.45-1-1-1Z"/><path d="m20.5,23c-.55,0-1,.45-1,1v3c0,.55.45,1,1,1s1-.45,1-1v-3c0-.55-.45-1-1-1Z"/><path d="m11.5,23c-.55,0-1,.45-1,1v3c0,.55.45,1,1,1s1-.45,1-1v-3c0-.55-.45-1-1-1Z"/></svg>