<?xml version="1.0" encoding="iso-8859-1"?>
<!-- Generator: Adobe Illustrator 24.1.2, SVG Export Plug-In . SVG Version: 6.00 Build 0)  -->
<svg version="1.1" xmlns="http://www.w3.org/2000/svg" xmlns:xlink="http://www.w3.org/1999/xlink" x="0px" y="0px"
	 viewBox="0 0 50 50" style="enable-background:new 0 0 50 50;" xml:space="preserve">
<g id="Layer_10" style="display:none;">
	<g style="display:inline;opacity:0.05;">
		<circle style="fill:#FFFFFF;" cx="25" cy="25" r="21.5"/>
		<path d="M25,4c11.579,0,21,9.421,21,21s-9.421,21-21,21S4,36.579,4,25S13.421,4,25,4 M25,3C12.85,3,3,12.85,3,25s9.85,22,22,22
			s22-9.85,22-22S37.15,3,25,3L25,3z"/>
	</g>
	<g style="display:inline;opacity:0.05;">
		<rect x="5.5" y="5.5" style="fill:#FFFFFF;" width="39" height="39"/>
		<path d="M44,6v38H6V6H44 M45,5H5v40h40V5L45,5z"/>
	</g>
</g>
<g id="filled">
</g>
<g id="outlined">
</g>
<g id="rounded">
</g>
<g id="two_x5F_tone">
</g>
<g id="sharp">
</g>
<g id="win10">
</g>
<g id="ios_x5F_out">
	<path style="fill:none;stroke:#000000;stroke-width:2;stroke-linecap:round;stroke-linejoin:round;stroke-miterlimit:10;" d="
		M44,20v26H6V20H44z"/>
	
		<rect x="13" y="27" style="fill:none;stroke:#000000;stroke-width:2;stroke-linecap:round;stroke-linejoin:round;stroke-miterlimit:10;" width="8" height="12"/>
	
		<rect x="29" y="27" style="fill:none;stroke:#000000;stroke-width:2;stroke-linecap:round;stroke-linejoin:round;stroke-miterlimit:10;" width="8" height="12"/>
	<path style="fill:none;stroke:#000000;stroke-width:2;stroke-linecap:round;stroke-linejoin:round;stroke-miterlimit:10;" d="
		M35,10.5c0.005-0.002,0-4.5,0-4.5h4c0,0-0.001,8.242,0,8"/>
	<path style="fill:none;stroke:#000000;stroke-width:2;stroke-linecap:round;stroke-linejoin:round;stroke-miterlimit:10;" d="
		M48,22L25,2.053L2,22"/>
</g>
<g id="ios_x5F_filled">
</g>
<g id="color">
</g>
</svg>