<?xml version="1.0" encoding="iso-8859-1"?>
<!-- Generator: Adobe Illustrator 18.0.0, SVG Export Plug-In . SVG Version: 6.00 Build 0)  -->
<!DOCTYPE svg PUBLIC "-//W3C//DTD SVG 1.1//EN" "http://www.w3.org/Graphics/SVG/1.1/DTD/svg11.dtd">
<svg version="1.1" id="Layer_1" xmlns="http://www.w3.org/2000/svg" xmlns:xlink="http://www.w3.org/1999/xlink" x="0px" y="0px"
	 width="50px" height="50px" viewBox="0 0 50 50" style="enable-background:new 0 0 50 50;" xml:space="preserve">
<path d="M20,7v2h30V7H20z M20,23v2h30v-2H20z"/>
<rect x="20" y="40" width="30" height="2"/>
<path d="M11.703,4.344L7.859,8.625L5.109,6.25l-1.313,1.5l3.5,3l0.75,0.656l0.656-0.75l4.5-5L11.703,4.344z"/>
<line style="fill:none;stroke:#000000;stroke-width:2;stroke-miterlimit:10;" x1="5" y1="19.899" x2="12" y2="26.899"/>
<line style="fill:none;stroke:#000000;stroke-width:2;stroke-miterlimit:10;" x1="12" y1="19.899" x2="5" y2="26.899"/>
<g>
	<path d="M7.972,44.415c-0.864,0-1.445,0.561-1.445,1.396c0,0.83,0.581,1.388,1.445,1.388c0.878,0,1.444-0.545,1.444-1.388
		C9.416,44.963,8.85,44.415,7.972,44.415z"/>
	<path d="M8.198,35c-2.33,0-3.822,1.307-3.894,3.411l-0.004,0.103h2.102l0.006-0.093c0.063-0.942,0.708-1.527,1.684-1.527
		c0.944,0,1.604,0.556,1.604,1.351c0,0.743-0.304,1.152-1.297,1.752c-1.185,0.695-1.638,1.476-1.565,2.689l0.01,0.649h2.079v-0.563
		c0-0.771,0.282-1.146,1.313-1.752C11.423,40.311,12,39.379,12,38.17C12,36.304,10.437,35,8.198,35z"/>
</g>
</svg>