<?xml version="1.0" encoding="iso-8859-1"?>
<!-- Generator: Adobe Illustrator 25.0.1, SVG Export Plug-In . SVG Version: 6.00 Build 0)  -->
<svg version="1.1" id="Layer_1" xmlns="http://www.w3.org/2000/svg" xmlns:xlink="http://www.w3.org/1999/xlink" x="0px" y="0px"
	 viewBox="0 0 48 48" style="enable-background:new 0 0 48 48;" xml:space="preserve">
<path style="fill:none;stroke:#000000;stroke-width:3;stroke-linecap:round;stroke-linejoin:round;stroke-miterlimit:10;" d="
	M24,43.241C38.848,36.987,40.5,26.754,40.5,20.5c0-6.112,0-9,0-9c-9.711,0-16.5-7-16.5-7s-6.789,7-16.5,7c0,0,0,2.889,0,9
	C7.5,26.754,9.152,36.987,24,43.241z"/>
<path d="M30.933,23.173c-0.123-0.317-0.398-0.551-0.732-0.619l-4.75-0.769L25.46,15c0.002-0.024,0.003-0.048,0.003-0.073
	c0-0.549-0.439-0.994-0.986-1c-0.005,0-0.011,0-0.016,0c-0.027,0-0.053,0.001-0.079,0.003c-0.187,0.015-0.359,0.08-0.502,0.183
	c-0.066,0.047-0.127,0.103-0.18,0.166c-0.018,0.022-0.036,0.044-0.053,0.068l-6.454,9.53c-0.201,0.275-0.248,0.633-0.125,0.95
	c0.123,0.317,0.398,0.551,0.732,0.619l4.75,0.769L22.541,33c-0.001,0.433,0.277,0.818,0.689,0.952
	c0.102,0.034,0.207,0.05,0.311,0.05c0.313,0,0.616-0.148,0.808-0.41l6.461-9.469C31.008,23.848,31.055,23.49,30.933,23.173z"/>
</svg>