<?xml version="1.0" encoding="iso-8859-1"?><!-- Generator: Adobe Illustrator 21.0.2, SVG Export Plug-In . SVG Version: 6.00 Build 0)  --><svg xmlns="http://www.w3.org/2000/svg" xmlns:xlink="http://www.w3.org/1999/xlink" viewBox="0 0 50 50" width="50px" height="50px"><g><path style="fill:none;stroke:#000000;stroke-width:2;stroke-linecap:round;stroke-linejoin:round;stroke-miterlimit:10;" d="M15,40c-2.07-2.114-5.727-5.727-6-6c-1-1-1-2,0-3s2-1,3,0c0.455,0.455,5.46,5.449,6,6c2.16,2.114,3,4.324,3,8c0,1,0,2,0,2"/><path style="fill:none;stroke:#000000;stroke-width:2;stroke-linecap:round;stroke-linejoin:round;stroke-miterlimit:10;" d="M13,47L13,47c0,0-6.94-8.314-8.02-9.6C3.81,36.114,3,35.654,3,32.07S3,19.092,3,19c0-1,1-2,2-2s2,1,2,2c0,0.184,0,12,0,12l1,1"/></g><g><path style="fill:none;stroke:#000000;stroke-width:2;stroke-linecap:round;stroke-linejoin:round;stroke-miterlimit:10;" d="M29,47v-2c0-3.676,0.84-5.886,3-8c0.54-0.551,5.545-5.545,6-6c1-1,2-1,3,0s1,2,0,3c-0.273,0.273-3.93,3.886-6,6"/><path style="fill:none;stroke:#000000;stroke-width:2;stroke-linecap:round;stroke-linejoin:round;stroke-miterlimit:10;" d="M42,32l1-1c0,0,0-11.816,0-12c0-1,1-2,2-2s2,1,2,2c0,0.092,0,9.486,0,13.07s-0.81,4.044-1.98,5.33C43.94,38.686,37,47,37,47l0,0"/></g><polyline style="fill:none;stroke:#000000;stroke-width:2;stroke-linecap:round;stroke-linejoin:round;stroke-miterlimit:10;" points="36,10 36,27 14,27 14,10 "/><path d="M40,10.663L25.507,2.138c-0.313-0.184-0.701-0.184-1.014,0L10,10.663v2.321L25,4.16l15,8.824V10.663z"/></svg>