<?xml version="1.0" encoding="iso-8859-1"?>
<!-- Generator: Adobe Illustrator 24.3.0, SVG Export Plug-In . SVG Version: 6.00 Build 0)  -->
<svg version="1.1" id="Layer_1_1_" xmlns="http://www.w3.org/2000/svg" xmlns:xlink="http://www.w3.org/1999/xlink" x="0px" y="0px"
	 viewBox="0 0 48 48" style="enable-background:new 0 0 48 48;" xml:space="preserve">
<path d="M37,32.19v7.31c0,0.83-0.67,1.5-1.5,1.5h-23c-0.83,0-1.5-0.67-1.5-1.5v-31C11,7.67,11.67,7,12.5,7H24v8.5
	c0,2.48,2.02,4.5,4.5,4.5h2.31l3-3H28.5c-0.83,0-1.5-0.67-1.5-1.5v-10c0-0.42-0.17-0.79-0.44-1.06C26.29,4.17,25.92,4,25.5,4h-13
	C10.02,4,8,6.02,8,8.5v31c0,2.48,2.02,4.5,4.5,4.5h23c2.48,0,4.5-2.02,4.5-4.5V29.19L37,32.19z"/>
<path d="M35.82,14.99l-1.47,1.48l-9.91-9.91l2.12-2.12l9.95,9.95C36.27,14.57,36.04,14.77,35.82,14.99z"/>
<path d="M25.86,25c-0.44,0.54-0.77,1.16-0.97,1.83L24.53,28H17.5c-0.83,0-1.5-0.67-1.5-1.5s0.67-1.5,1.5-1.5H25.86z"/>
<path d="M23.34,35H17.5c-0.83,0-1.5-0.67-1.5-1.5s0.67-1.5,1.5-1.5h5.8l-0.15,0.47C22.89,33.32,22.97,34.22,23.34,35z"/>
<path style="fill:none;stroke:#000000;stroke-width:3;stroke-linejoin:round;stroke-miterlimit:10;" d="M42.16,16.999
	c-1.202-0.814-2.836-0.566-3.862,0.46l-9.567,9.568c-0.231,0.231-0.402,0.515-0.498,0.827L26.5,33.5l5.646-1.733
	c0.312-0.096,0.596-0.267,0.827-0.498l9.648-9.648C43.93,20.313,43.777,18.094,42.16,16.999z"/>
<line style="fill:none;stroke:#000000;stroke-width:4;stroke-linecap:round;stroke-linejoin:round;stroke-miterlimit:10;" x1="43" y1="17" x2="44" y2="16"/>
</svg>