<?xml version="1.0" encoding="iso-8859-1"?>
<!-- Generator: Adobe Illustrator 23.0.3, SVG Export Plug-In . SVG Version: 6.00 Build 0)  -->
<svg version="1.1" xmlns="http://www.w3.org/2000/svg" xmlns:xlink="http://www.w3.org/1999/xlink" x="0px" y="0px"
	 viewBox="0 0 50 50" style="enable-background:new 0 0 50 50;" xml:space="preserve">
<g id="Layer_10" style="display:none;">
</g>
<g id="filled">
</g>
<g id="outlined">
</g>
<g id="rounded">
</g>
<g id="two_x5F_tone">
</g>
<g id="sharp">
</g>
<g id="win10">
</g>
<g id="ios_x5F_out">
	<polyline style="fill:none;stroke:#000000;stroke-width:2;stroke-linejoin:round;stroke-miterlimit:10;" points="15,26 15,6 28,6 
		28,14 	"/>
	<polyline style="fill:none;stroke:#000000;stroke-width:2;stroke-linejoin:round;stroke-miterlimit:10;" points="34,40 23,40 
		23,14 36,14 36,22 	"/>
	<polyline style="fill:none;stroke:#000000;stroke-width:2;stroke-linejoin:round;stroke-miterlimit:10;" points="43,30.842 
		49.141,44 0.967,44 7,29.923 	"/>
	
		<rect x="7" y="26" style="fill:none;stroke:#000000;stroke-width:2;stroke-linejoin:round;stroke-miterlimit:10;" width="16" height="14"/>
	
		<rect x="31" y="22" style="fill:none;stroke:#000000;stroke-width:2;stroke-linejoin:round;stroke-miterlimit:10;" width="12" height="18"/>
	<rect x="34" y="25" width="2" height="2"/>
	<rect x="31" y="17" width="2" height="2"/>
	<rect x="26" y="17" width="2" height="2"/>
	<rect x="23" y="9" width="2" height="2"/>
	<rect x="18" y="9" width="2" height="2"/>
	<rect x="18" y="13" width="2" height="2"/>
	<rect x="18" y="17" width="2" height="2"/>
	<rect x="18" y="21" width="2" height="2"/>
	<rect x="26" y="21" width="2" height="2"/>
	<rect x="26" y="25" width="2" height="2"/>
	<rect x="26" y="29" width="2" height="2"/>
	<rect x="26" y="33" width="2" height="2"/>
	<rect x="10" y="29" width="2" height="2"/>
	<rect x="14" y="29" width="2" height="2"/>
	<rect x="18" y="29" width="2" height="2"/>
	<rect x="10" y="33" width="2" height="2"/>
	<rect x="14" y="33" width="2" height="2"/>
	<rect x="18" y="33" width="2" height="2"/>
	<rect x="38" y="25" width="2" height="2"/>
	<rect x="34" y="29" width="2" height="2"/>
	<rect x="38" y="29" width="2" height="2"/>
	<rect x="34" y="33" width="2" height="2"/>
	<rect x="38" y="33" width="2" height="2"/>
</g>
<g id="ios_x5F_filled">
</g>
<g id="color">
</g>
</svg>