<?xml version="1.0" encoding="utf-8"?><!-- Generator: Adobe Illustrator 17.0.0, SVG Export Plug-In . SVG Version: 6.00 Build 0)  --><!DOCTYPE svg PUBLIC "-//W3C//DTD SVG 1.1//EN" "http://www.w3.org/Graphics/SVG/1.1/DTD/svg11.dtd"><svg xmlns="http://www.w3.org/2000/svg" xmlns:xlink="http://www.w3.org/1999/xlink" viewBox="0 0 50 50" width="50px" height="50px"><rect x="0" fill="none" width="50" height="50"/><path d="M0,19c3.314,0,6,2.686,6,6s-2.686,6-6,6"/><path fill="none" stroke="#000000" stroke-width="2" stroke-linecap="round" stroke-linejoin="round" stroke-miterlimit="10" d="M36.393,39.488C33.033,35.603,31,30.539,31,25c0-5.539,2.033-10.603,5.392-14.487"/><path fill="none" stroke="#000000" stroke-width="2" stroke-linecap="round" stroke-linejoin="round" stroke-miterlimit="10" d="M42.486,35.601C39.719,32.917,38,29.159,38,25c0-4.16,1.72-7.918,4.487-10.602"/><path fill="none" stroke="#000000" stroke-width="2" stroke-linecap="round" stroke-linejoin="round" stroke-miterlimit="10" d="M48.909,31.517C46.583,30.274,45,27.822,45,25c0-2.817,1.578-5.266,3.897-6.511"/><path fill="none" stroke="#000000" stroke-width="2" stroke-linecap="round" stroke-linejoin="round" stroke-miterlimit="10" d="M30.373,43.329C26.383,38.293,24,31.925,24,25s2.383-13.293,6.373-18.329"/><path fill="none" stroke="#000000" stroke-width="2" stroke-linecap="round" stroke-linejoin="round" stroke-miterlimit="10" d="M24.283,47.022C19.708,40.874,17,33.253,17,25c0-8.259,2.712-15.885,7.294-22.036"/><line fill="none" stroke="#000000" stroke-width="2" stroke-linejoin="round" stroke-miterlimit="10" x1="1" y1="5" x2="1" y2="45"/></svg>