<?xml version="1.0" encoding="iso-8859-1"?><!-- Generator: Adobe Illustrator 20.1.0, SVG Export Plug-In . SVG Version: 6.00 Build 0)  --><svg xmlns="http://www.w3.org/2000/svg" xmlns:xlink="http://www.w3.org/1999/xlink" viewBox="0 0 50 50" width="50px" height="50px"><path style="fill:none;stroke:#000000;stroke-width:2;stroke-linecap:round;stroke-linejoin:round;stroke-miterlimit:10;" d="M41.333,20l2.909-4L46,9c0-1.657-7.173-6-21-6S4,7.343,4,9l1.736,7l2.931,4"/><path style="fill:none;stroke:#000000;stroke-width:2;stroke-linecap:round;stroke-linejoin:round;stroke-miterlimit:10;" d="M8.667,20l1.167,5.5c0,1.381,7.02,3.5,15.167,3.5s15.167-2.119,15.167-3.5l1.167-5.5"/><g><g><path style="fill:none;stroke:#000000;stroke-width:2;stroke-linejoin:round;" d="M41.333,20c0,0-0.411-0.329-1.265-0.799"/><path style="fill:none;stroke:#000000;stroke-width:2;stroke-linejoin:round;stroke-dasharray:2.9152,1.9435;" d="M38.32,18.359C35.712,17.255,31.352,16,25,16c-7.133,0-11.755,1.583-14.203,2.757"/><path style="fill:none;stroke:#000000;stroke-width:2;stroke-linejoin:round;" d="M9.932,19.201C9.078,19.671,8.667,20,8.667,20"/></g></g><g><g><path style="fill:none;stroke:#000000;stroke-width:2;stroke-linejoin:round;" d="M40.167,25c0,0-0.427-0.309-1.299-0.742"/><path style="fill:none;stroke:#000000;stroke-width:2;stroke-linejoin:round;stroke-dasharray:3.1667,2.1111;" d="M36.931,23.423C34.444,22.494,30.499,21.5,25,21.5c-6.285,0-10.542,1.299-12.908,2.314"/><path style="fill:none;stroke:#000000;stroke-width:2;stroke-linejoin:round;" d="M11.132,24.258C10.261,24.691,9.833,25,9.833,25"/></g></g><path style="fill:none;stroke:#000000;stroke-width:2;stroke-linecap:round;stroke-miterlimit:10;" d="M34,44c0,0,1-2.013,1-2.75s-1-1.691-1-2.75s1-2.157,1-2.75S34,33,34,33"/><path style="fill:none;stroke:#000000;stroke-width:2;stroke-linecap:round;stroke-miterlimit:10;" d="M16,44c0,0,1-2.013,1-2.75s-1-1.691-1-2.75s1-2.157,1-2.75S16,33,16,33"/><path style="fill:none;stroke:#000000;stroke-width:2;stroke-linecap:round;stroke-miterlimit:10;" d="M25,47c0,0,1-2.196,1-3s-1-1.845-1-3s1-2.353,1-3s-1-3-1-3"/></svg>