<svg xmlns="http://www.w3.org/2000/svg" viewBox="1.5 1.5 28.5 28.5" width="50px" height="50px">
<path d="M 16 3.9628906 C 13.75 3.9628906 12.242497 4.8456858 10.884766 5.5839844 C 9.5270341 6.322283 8.2816307 6.9628906 6 6.9628906 L 5 6.9628906 L 5 7.9628906 C 5 15.680746 7.605007 20.701796 10.246094 23.740234 C 12.88718 26.778672 15.626953 27.890625 15.626953 27.890625 L 15.998047 28.039062 L 16.367188 27.892578 C 16.367188 27.892578 19.111702 26.794044 21.753906 23.761719 C 24.39611 20.729394 27 15.707919 27 7.9628906 L 27 6.9628906 L 26 6.9628906 C 23.730806 6.9628906 22.484223 6.3226165 21.123047 5.5839844 C 19.761871 4.8453522 18.25 3.9628906 16 3.9628906 z M 16 5.9628906 C 17.75 5.9628906 18.766848 6.580429 20.169922 7.3417969 C 21.352057 7.9832737 22.911122 8.5887739 24.931641 8.796875 C 24.742901 15.566584 22.504845 19.855009 20.246094 22.447266 C 18.194135 24.802196 16.479735 25.617856 16.001953 25.830078 C 15.522949 25.614625 13.806268 24.788874 11.753906 22.427734 C 9.4944536 19.828347 7.259685 15.539392 7.0703125 8.796875 C 9.0976324 8.5888174 10.659549 7.981657 11.839844 7.3398438 C 13.240613 6.5781424 14.25 5.9628906 16 5.9628906 z M 16 8 L 12 16 L 16 16 L 16 22 L 20 14 L 16 14 L 16 8 z"/></svg>